<svg xmlns="http://www.w3.org/2000/svg" width="640" height="380" viewBox="0 0 640 380" font-family="Segoe UI, Arial, sans-serif" font-size="13">
<rect width="640" height="380" fill="#ffffff"/>
<text x="320.0" y="24" text-anchor="middle" font-size="15" font-weight="bold" fill="#1b2430">Voyager flyby clearance (MissionEphemeris::voyagerRenderPosition)</text>
<line x1="70" y1="320" x2="610" y2="320" stroke="#1b2430"/>
<line x1="70" y1="320" x2="70" y2="44.0" stroke="#1b2430"/>
<line x1="70" y1="320" x2="70" y2="325" stroke="#1b2430"/><text x="70" y="340" text-anchor="middle" fill="#1b2430">0c</text>
<line x1="130" y1="320" x2="130" y2="325" stroke="#1b2430"/><text x="130" y="340" text-anchor="middle" fill="#1b2430">1c</text>
<line x1="190" y1="320" x2="190" y2="325" stroke="#1b2430"/><text x="190" y="340" text-anchor="middle" fill="#1b2430">2c</text>
<line x1="250" y1="320" x2="250" y2="325" stroke="#1b2430"/><text x="250" y="340" text-anchor="middle" fill="#1b2430">3c</text>
<line x1="310" y1="320" x2="310" y2="325" stroke="#1b2430"/><text x="310" y="340" text-anchor="middle" fill="#1b2430">4c</text>
<line x1="370" y1="320" x2="370" y2="325" stroke="#1b2430"/><text x="370" y="340" text-anchor="middle" fill="#1b2430">5c</text>
<line x1="430" y1="320" x2="430" y2="325" stroke="#1b2430"/><text x="430" y="340" text-anchor="middle" fill="#1b2430">6c</text>
<line x1="490" y1="320" x2="490" y2="325" stroke="#1b2430"/><text x="490" y="340" text-anchor="middle" fill="#1b2430">7c</text>
<line x1="550" y1="320" x2="550" y2="325" stroke="#1b2430"/><text x="550" y="340" text-anchor="middle" fill="#1b2430">8c</text>
<line x1="610" y1="320" x2="610" y2="325" stroke="#1b2430"/><text x="610" y="340" text-anchor="middle" fill="#1b2430">9c</text>
<line x1="65" y1="320" x2="70" y2="320" stroke="#1b2430"/><text x="60" y="324" text-anchor="end" fill="#1b2430">0c</text>
<line x1="65" y1="260" x2="70" y2="260" stroke="#1b2430"/><text x="60" y="264" text-anchor="end" fill="#1b2430">1c</text>
<line x1="65" y1="200" x2="70" y2="200" stroke="#1b2430"/><text x="60" y="204" text-anchor="end" fill="#1b2430">2c</text>
<line x1="65" y1="140" x2="70" y2="140" stroke="#1b2430"/><text x="60" y="144" text-anchor="end" fill="#1b2430">3c</text>
<line x1="65" y1="80" x2="70" y2="80" stroke="#1b2430"/><text x="60" y="84" text-anchor="end" fill="#1b2430">4c</text>
<rect x="310" y="44.0" width="240" height="276.0" fill="#f2b33d" fill-opacity="0.13"/>
<text x="430" y="86.0" text-anchor="middle" fill="#8a5a00">push fades out (smoothstep 4c..8c)</text>
<polyline points="70,320 346.0,44.0" fill="none" stroke="#7a8696" stroke-dasharray="6 5" stroke-width="1.5"/>
<text x="265.0" y="104.0" fill="#5c6775">no correction: L = |g|</text>
<polyline points="70.0,260.0 73.0,259.9 76.0,259.7 79.0,259.3 82.0,258.8 85.0,258.2 88.0,257.4 91.0,256.4 94.0,255.4 97.0,254.2 100.0,252.9 103.0,251.5 106.0,250.0 109.0,248.4 112.0,246.8 115.0,245.0 118.0,243.2 121.0,241.3 124.0,239.3 127.0,237.2 130.0,235.1 133.0,233.0 136.0,230.8 139.0,228.6 142.0,226.3 145.0,224.0 148.0,221.6 151.0,219.2 154.0,216.8 157.0,214.3 160.0,211.8 163.0,209.3 166.0,206.8 169.0,204.2 172.0,201.7 175.0,199.1 178.0,196.5 181.0,193.8 184.0,191.2 187.0,188.5 190.0,185.8 193.0,183.1 196.0,180.4 199.0,177.7 202.0,175.0 205.0,172.3 208.0,169.5 211.0,166.8 214.0,164.0 217.0,161.2 220.0,158.4 223.0,155.7 226.0,152.9 229.0,150.1 232.0,147.2 235.0,144.4 238.0,141.6 241.0,138.8 244.0,135.9 247.0,133.1 250.0,130.3 253.0,127.4 256.0,124.6 259.0,121.7 262.0,118.8 265.0,116.0 268.0,113.1 271.0,110.2 274.0,107.4 277.0,104.5 280.0,101.6 283.0,98.7 286.0,95.8 289.0,92.9 292.0,90.0 295.0,87.1 298.0,84.2 301.0,81.3 304.0,78.4 307.0,75.5 310.0,72.6 313.0,69.7 316.0,66.8 319.0,63.9 322.0,61.0 325.0,58.1 328.0,55.2 331.0,52.3 334.0,49.5 337.0,46.6 340.0,43.7 343.0,40.8 346.0,37.9 349.0,35.1 352.0,32.2 355.0,29.3 358.0,26.5 361.0,23.6 364.0,20.7 367.0,17.9 370.0,15.0 373.0,12.1 376.0,9.3 379.0,6.4 382.0,3.5 385.0,0.7 388.0,-2.2 391.0,-5.1 394.0,-8.0 397.0,-10.8 400.0,-13.7 403.0,-16.6 406.0,-19.4 409.0,-22.3 412.0,-25.2 415.0,-28.1 418.0,-31.0 421.0,-33.8 424.0,-36.7 427.0,-39.6 430.0,-42.5 433.0,-45.4 436.0,-48.3 439.0,-51.2 442.0,-54.0 445.0,-56.9 448.0,-59.8 451.0,-62.7 454.0,-65.6 457.0,-68.5 460.0,-71.5 463.0,-74.4 466.0,-77.3 469.0,-80.2 472.0,-83.1 475.0,-86.0 478.0,-88.9 481.0,-91.9 484.0,-94.8 487.0,-97.7 490.0,-100.7 493.0,-103.6 496.0,-106.5 499.0,-109.5 502.0,-112.4 505.0,-115.4 508.0,-118.3 511.0,-121.3 514.0,-124.2 517.0,-127.2 520.0,-130.2 523.0,-133.1 526.0,-136.1 529.0,-139.1 532.0,-142.1 535.0,-145.0 538.0,-148.0 541.0,-151.0 544.0,-154.0 547.0,-157.0 550.0,-160.0 553.0,-163.0 556.0,-166.0 559.0,-169.0 562.0,-172.0 565.0,-175.0 568.0,-178.0 571.0,-181.0 574.0,-184.0 577.0,-187.0 580.0,-190.0 583.0,-193.0 586.0,-196.0 589.0,-199.0 592.0,-202.0 595.0,-205.0 598.0,-208.0 601.0,-211.0 604.0,-214.0 607.0,-217.0 610.0,-220.0" fill="none" stroke="#1f6fd1" stroke-width="3"/>
<circle cx="70" cy="260" r="5" fill="#d1461f"/>
<text x="80" y="250" fill="#d1461f">closest approach: L = c</text>
<text x="160.0" y="286.0" fill="#1f6fd1">rendered distance L</text>
<text x="340.0" y="362" text-anchor="middle" fill="#1b2430">|g| = uncorrected rendered distance from the planet centre</text>
<text x="70" y="372" fill="#5c6775">c = display radius x (1.5 + sqrt(real closest approach / real radius)); direction of g is always kept.</text>
</svg>
